HIERARCHY
ROOT Hips
{
	OFFSET	0.00	0.00	0.00
	CHANNELS 6 Xposition Yposition Zposition Zrotation Xrotation Yrotation
	JOINT LeftUpLeg
	{
		OFFSET	 0.126116	-0.065224	 0.014019
		CHANNELS 3 Zrotation Xrotation Yrotation
		JOINT LeftLeg
		{
			OFFSET	 0.000000	 0.569914	 0.000000
			CHANNELS 3 Zrotation Xrotation Yrotation
			JOINT LeftFoot
			{
				OFFSET	 0.000000	 0.544423	 0.000000
				CHANNELS 3 Zrotation Xrotation Yrotation
				JOINT LeftToeBase
				{
					OFFSET	 0.000000	 0.207117	 0.000000
					CHANNELS 3 Zrotation Xrotation Yrotation
					End Site
					{
						OFFSET	 0.000000	 0.207117	 0.000000
					}
				}
			}
		}
	}
	JOINT RightUpLeg
	{
		OFFSET	-0.124023	-0.065224	 0.008373
		CHANNELS 3 Zrotation Xrotation Yrotation
		JOINT RightLeg
		{
			OFFSET	 0.000000	 0.570047	 0.000000
			CHANNELS 3 Zrotation Xrotation Yrotation
			JOINT RightFoot
			{
				OFFSET	 0.000000	 0.544354	 0.000000
				CHANNELS 3 Zrotation Xrotation Yrotation
				JOINT RightToeBase
				{
					OFFSET	 0.000000	 0.207540	 0.000000
					CHANNELS 3 Zrotation Xrotation Yrotation
					End Site
					{
						OFFSET	 0.000000	 0.207540	 0.000000
					}
				}
			}
		}
	}
	JOINT Spine
	{
		OFFSET	 0.000184	 0.117403	 0.007763
		CHANNELS 3 Zrotation Xrotation Yrotation
		JOINT Spine1
		{
			OFFSET	 0.000000	 0.137269	 0.000000
			CHANNELS 3 Zrotation Xrotation Yrotation
			JOINT Spine2
			{
				OFFSET	 0.000000	 0.156879	 0.000000
				CHANNELS 3 Zrotation Xrotation Yrotation
				JOINT LeftShoulder
				{
					OFFSET	 0.080501	 0.160143	 0.002496
					CHANNELS 3 Zrotation Xrotation Yrotation
					JOINT LeftArm
					{
						OFFSET	 0.000000	 0.164363	 0.000000
						CHANNELS 3 Zrotation Xrotation Yrotation
						JOINT LeftForeArm
						{
							OFFSET	 0.000000	 0.364576	 0.000000
							CHANNELS 3 Zrotation Xrotation Yrotation
							JOINT LeftHand
							{
								OFFSET	 0.000000	 0.360812	 0.000000
								CHANNELS 3 Zrotation Xrotation Yrotation
								JOINT LeftHandIndex1
								{
									OFFSET	 0.000000	 0.086006	 0.000000
									CHANNELS 3 Zrotation Xrotation Yrotation
									JOINT LeftHandIndex2
									{
										OFFSET	 0.000000	 0.047237	 0.000000
										CHANNELS 3 Zrotation Xrotation Yrotation
										JOINT LeftHandIndex3
										{
											OFFSET	-0.004284	 0.038165	 0.000551
											CHANNELS 3 Zrotation Xrotation Yrotation
											End Site
											{
												OFFSET	-0.004284	 0.038165	 0.000551
											}
										}
									}
								}
							}
						}
					}
				}
				JOINT Neck
				{
					OFFSET	 0.000000	 0.176489	 0.000000
					CHANNELS 3 Zrotation Xrotation Yrotation
					JOINT Head
					{
						OFFSET	 0.000000	 0.077941	 0.001747
						CHANNELS 3 Zrotation Xrotation Yrotation
						End Site
						{
							OFFSET	 0.000000	 0.077941	 0.001747
						}
					}
				}
				JOINT RightShoulder
				{
					OFFSET	-0.080363	 0.159706	-0.000306
					CHANNELS 3 Zrotation Xrotation Yrotation
					JOINT RightArm
					{
						OFFSET	 0.000000	 0.164196	 0.000000
						CHANNELS 3 Zrotation Xrotation Yrotation
						JOINT RightForeArm
						{
							OFFSET	 0.000000	 0.365611	 0.000000
							CHANNELS 3 Zrotation Xrotation Yrotation
							JOINT RightHand
							{
								OFFSET	 0.000000	 0.360648	 0.000000
								CHANNELS 3 Zrotation Xrotation Yrotation
								JOINT RightHandIndex1
								{
									OFFSET	 0.000000	 0.069977	 0.000000
									CHANNELS 3 Zrotation Xrotation Yrotation
									JOINT RightHandIndex2
									{
										OFFSET	 0.000000	 0.052305	 0.000000
										CHANNELS 3 Zrotation Xrotation Yrotation
										JOINT RightHandIndex3
										{
											OFFSET	 0.009002	 0.042196	 0.000782
											CHANNELS 3 Zrotation Xrotation Yrotation
											End Site
											{
												OFFSET	 0.009002	 0.042196	 0.000782
											}
										}
									}
								}
							}
						}
					}
				}
			}
		}
	}
}
MOTION
Frames:    9
Frame Time: 0.03333334
 0.462790	 1.104074	 0.670577	-7.928748	-31.433560	-177.960700	 130.793400	 67.453190	 42.155120	 23.337600	-56.154020	 28.764600	 4.230497	 77.499480	-14.824580	 1.292262	 28.425850	-2.713146	-176.590600	 76.501900	-15.579390	-16.626170	-56.108520	-25.772220	-26.664380	 73.853620	 38.138770	-1.288183	 28.361890	 2.710176	 2.171456	 12.633880	-0.219937	 2.421345	 15.244730	 0.118775	-4.146938	 1.967840	-12.818720	-122.094500	 29.128900	 105.366300	 27.188950	 2.119664	 8.277055	 51.824760	-8.467591	-44.676040	 32.341460	 8.441889	 16.542260	-6.580301	 5.266122	 0.000000	 0.000000	 0.000000	 0.000000	 0.000000	 0.000000	 0.000000	 4.067820	 22.032010	-1.869443	-2.333039	-33.639050	-3.204897	 124.569200	 27.959510	-105.925900	-36.942710	-0.022310	 3.925792	-42.015870	 1.378287	 1.611215	-6.538045	-42.509070	-8.655461	 15.208500	 5.323790	 0.000000	 0.000000	 0.000000	 0.000000	 0.000000	 0.000000	 0.000000
 0.453173	 1.160799	 0.664866	-6.002927	-27.454900	-177.041700	 147.396500	 58.975410	 28.930560	 16.126780	-46.276100	 22.562040	 6.861790	 73.597720	-16.356200	 1.292262	 28.425850	-2.713146	 179.327400	 65.062660	-11.052560	-11.119220	-45.095840	-21.953350	-24.225170	 69.444430	 35.350280	-1.288183	 28.361890	 2.710176	 2.144531	 10.707720	-0.641939	 2.206138	 14.063800	 0.708577	-2.935503	-1.057799	-12.185970	-116.725600	 24.545070	 101.430800	 27.021230	 14.430710	 7.336784	 57.078700	-8.782838	-42.492440	 32.845130	 7.139292	 15.040600	-6.580301	 5.266122	 0.000000	 0.000000	 0.000000	 0.000000	 0.000000	 0.000000	 0.000000	 0.740899	 6.676418	-1.055965	-0.375025	-19.724970	-3.196712	 121.655600	 24.488620	-103.186700	-34.189570	 6.909041	 0.009259	-50.334540	 1.527171	 2.327695	-12.084060	-44.663800	-11.459870	 15.208500	 5.323790	 0.000000	 0.000000	 0.000000	 0.000000	 0.000000	 0.000000	 0.000000
 0.451161	 1.190024	 0.653824	-4.062481	-23.343900	-175.769900	 155.071700	 51.495600	 24.749840	 13.221080	-40.725570	 20.803750	 11.384120	 71.846370	-20.028380	 1.292262	 28.425850	-2.713146	 178.928500	 56.226130	-9.641585	-8.827024	-38.602750	-18.824960	-20.361240	 67.438130	 29.943970	-1.288183	 28.361890	 2.710176	 2.011462	 9.188102	-1.277812	 2.473801	 15.709810	 0.883706	-1.831617	-5.923826	-11.256380	-115.126400	 20.271130	 99.085540	 27.325800	 21.607990	 9.504984	 61.152490	-8.776297	-39.216580	 35.532770	 4.010716	 14.479950	-6.580301	 5.266122	 0.000000	 0.000000	 0.000000	 0.000000	 0.000000	 0.000000	 0.000000	-1.604622	-2.692123	-0.993022	 0.753320	-11.331410	-3.293321	 118.506700	 20.536350	-100.429600	-33.126820	 14.145860	-1.314946	-55.545180	 1.971442	 0.687024	-18.922570	-46.510360	-14.788180	 15.208500	 5.323790	 0.000000	 0.000000	 0.000000	 0.000000	 0.000000	 0.000000	 0.000000
 0.449189	 1.230241	 0.626344	-1.409957	-18.281970	-174.398600	 163.859200	 40.439960	 21.383600	 9.236876	-31.141230	 17.887070	 14.146830	 68.652950	-20.785140	 1.292262	 28.425850	-2.713146	 179.055600	 43.078840	-8.299427	-5.521276	-26.591740	-12.503300	-11.645770	 63.915950	 17.915620	-1.288183	 28.361890	 2.710176	 1.673453	 5.981466	-2.328216	 1.471568	 12.079760	 1.465203	 0.046103	-8.742032	-9.644314	-118.369000	 16.167670	 97.872100	 23.505540	 22.726730	 18.822900	 68.547650	-8.567205	-34.073100	 31.614770	-2.042183	 13.880790	-6.580301	 5.266122	 0.000000	 0.000000	 0.000000	 0.000000	 0.000000	 0.000000	 0.000000	-1.952273	-2.343724	-1.179914	 0.554639	-10.182440	-2.944302	 123.332900	 15.850730	-99.204960	-28.498580	 17.848090	-6.797851	-60.052080	 2.606157	-1.866127	-23.399140	-43.518790	-15.928900	 15.208500	 5.323790	 0.000000	 0.000000	 0.000000	 0.000000	 0.000000	 0.000000	 0.000000
 0.446291	 1.281005	 0.510179	 0.641530	-1.765381	-175.064100	 176.053300	 7.505651	 15.943240	 3.131152	-11.618600	 4.912795	 2.010483	 66.299340	 1.960797	 1.292262	 28.425850	-2.713146	-179.909200	 8.720768	-10.057880	-0.966873	-5.017285	 0.080405	-0.803987	 59.184110	-4.020001	-1.288183	 28.361890	 2.710176	-0.019821	 1.573714	-13.657120	 2.666370	-1.254133	-3.282295	-1.733199	-5.680398	 8.005686	-121.761800	 3.042181	 91.888690	 25.798060	 34.808740	 29.959050	 79.187450	-7.188395	-21.833400	 1.022359	-40.094810	 0.727573	-6.580301	 5.266122	 0.000000	 0.000000	 0.000000	 0.000000	 0.000000	 0.000000	 0.000000	 0.502359	 6.145119	-1.342711	-0.021637	-5.047413	 1.451630	 123.330500	 4.964554	-93.564770	-28.809110	 40.115950	-11.925100	-67.811900	 4.434465	-6.361583	-35.558940	-8.250175	-10.207240	 15.208500	 5.323790	 0.000000	 0.000000	 0.000000	 0.000000	 0.000000	 0.000000	 0.000000
 0.443915	 1.280077	 0.508861	 0.656809	-1.516379	-175.291200	 176.009900	 7.239884	 15.733460	 3.150695	-11.689060	 4.781994	 1.917214	 66.384570	 2.239152	 1.292262	 28.425850	-2.713146	-179.944500	 8.451537	-10.290910	-0.967159	-5.018744	 0.101528	-0.731556	 59.304850	-4.052411	-1.288183	 28.361890	 2.710176	-0.048082	 1.550410	-14.487060	 3.016527	-1.171777	-3.634891	-1.981860	-5.814705	 9.225734	-121.663700	 3.100138	 91.913410	 25.509110	 35.408050	 30.262100	 78.637550	-7.211833	-21.980170	 0.486533	-42.835200	-0.049911	-6.580301	 5.266122	 0.000000	 0.000000	 0.000000	 0.000000	 0.000000	 0.000000	 0.000000	 0.546895	 5.704071	-1.277196	-0.187249	-4.870350	 1.758670	 123.252000	 4.992310	-93.572130	-28.989120	 40.283010	-11.938170	-68.431990	 4.464165	-6.162265	-36.516120	-5.864806	-9.825602	 15.208500	 5.323790	 0.000000	 0.000000	 0.000000	 0.000000	 0.000000	 0.000000	 0.000000
 0.441205	 1.278941	 0.507517	 0.669574	-1.255297	-175.530500	 175.948300	 6.970893	 15.513600	 3.171167	-11.762870	 4.643802	 1.825721	 66.461270	 2.532109	 1.292262	 28.425850	-2.713146	-179.996000	 8.178295	-10.534170	-0.967389	-5.019909	 0.122575	-0.642871	 59.423220	-4.088315	-1.288183	 28.361890	 2.710176	-0.070438	 1.527919	-15.243420	 3.334369	-1.023535	-3.958117	-2.203789	-5.976793	 10.322490	-121.560700	 3.161024	 91.939250	 25.222890	 36.043750	 30.589340	 77.965230	-7.233119	-22.137500	 0.191373	-45.354410	-0.806043	-6.580301	 5.266122	 0.000000	 0.000000	 0.000000	 0.000000	 0.000000	 0.000000	 0.000000	 0.594162	 5.241087	-1.208096	-0.361968	-4.680223	 2.036560	 123.169600	 5.021456	-93.579780	-29.199220	 40.394700	-11.935510	-69.144920	 4.493793	-5.955824	-37.247090	-3.682059	-9.392035	 15.208500	 5.323790	 0.000000	 0.000000	 0.000000	 0.000000	 0.000000	 0.000000	 0.000000
 0.438805	 1.277898	 0.506383	 0.673051	-1.026229	-175.740800	 175.889700	 6.728037	 15.318700	 3.182067	-11.802080	 4.519729	 1.742137	 66.510690	 2.796591	 1.292262	 28.425850	-2.713146	 179.948600	 7.943223	-10.748040	-0.967575	-5.020894	 0.140257	-0.564007	 59.522130	-4.118677	-1.288183	 28.361890	 2.710176	-0.087704	 1.507262	-15.787030	 3.554341	-0.844676	-4.188495	-2.356046	-6.141066	 11.103340	-121.469800	 3.214816	 91.961970	 24.988880	 36.595480	 30.869320	 77.335430	-7.249633	-22.275640	 0.183637	-47.189040	-1.351740	-6.580301	 5.266122	 0.000000	 0.000000	 0.000000	 0.000000	 0.000000	 0.000000	 0.000000	 0.636332	 4.832357	-1.146808	-0.516892	-4.505422	 2.236163	 123.096800	 5.047197	-93.586500	-29.389030	 40.456900	-11.933010	-69.770700	 4.518070	-5.777374	-37.669710	-2.112759	-9.039495	 15.208500	 5.323790	 0.000000	 0.000000	 0.000000	 0.000000	 0.000000	 0.000000	 0.000000
 0.436785	 1.276987	 0.505431	 0.669954	-0.823413	-175.927900	 175.836100	 6.510533	 15.145340	 3.189774	-11.829860	 4.408499	 1.663316	 66.551700	 3.032854	 1.292262	 28.425850	-2.713146	 179.896400	 7.738084	-10.937660	-0.968043	-5.023213	 0.155112	-0.496435	 59.607010	-4.146399	-1.288183	 28.361890	 2.710176	-0.099106	 1.486385	-16.138610	 3.689894	-0.649434	-4.330698	-2.448782	-6.310257	 11.607690	-121.389100	 3.262616	 91.982060	 24.795110	 37.069790	 31.103650	 76.786640	-7.263162	-22.394500	 0.431567	-48.414860	-1.652170	-6.580301	 5.266122	 0.000000	 0.000000	 0.000000	 0.000000	 0.000000	 0.000000	 0.000000	 0.674131	 4.469403	-1.092156	-0.654934	-4.341695	 2.366643	 123.032200	 5.070090	-93.592460	-29.537990	 40.493920	-11.947750	-70.295320	 4.537931	-5.622510	-37.843690	-1.092690	-8.803107	 15.208500	 5.323790	 0.000000	 0.000000	 0.000000	 0.000000	 0.000000	 0.000000	 0.000000
